<svg width="31" height="32" viewBox="0 0 31 32" fill="none" xmlns="http://www.w3.org/2000/svg">
<path d="M17.98 27.04C16.4538 28.64 14.7051 30.288 12.7179 32C4.24462 24.72 0 18.432 0 13.12C0 5.152 6.04103 0 12.7179 0C19.0769 0 24.8636 4.672 25.3882 12H31L23.8462 19.2L16.6923 12H22.2087C21.7 6.784 17.6938 3.2 12.7179 3.2C7.39231 3.2 3.17949 7.312 3.17949 13.12C3.17949 16.864 6.27949 21.824 12.7179 27.744C13.7354 26.8 14.6733 25.888 15.5318 25.008C15.2521 24.4524 15.1051 23.8388 15.1026 23.216C15.1026 22.1551 15.5213 21.1377 16.2666 20.3876C17.012 19.6374 18.0229 19.216 19.0769 19.216C20.131 19.216 21.1419 19.6374 21.8872 20.3876C22.6326 21.1377 23.0513 22.1551 23.0513 23.216C23.0507 23.8347 22.9071 24.4448 22.6318 24.998C22.3565 25.5512 21.957 26.0324 21.465 26.4034C20.973 26.7743 20.402 27.025 19.7971 27.1355C19.1923 27.246 18.5702 27.2133 17.98 27.04Z" fill="#FA793C"/>
</svg>
