<svg width="176" height="32" viewBox="0 0 176 32" fill="none" xmlns="http://www.w3.org/2000/svg">
<path d="M40.594 20.686H41.116C41.356 20.686 41.524 20.632 41.62 20.524C41.728 20.416 41.782 20.242 41.782 20.002V12.334C41.782 12.106 41.728 11.944 41.62 11.848C41.524 11.74 41.356 11.686 41.116 11.686H40.594V10.354H44.788V11.686H44.338C44.11 11.686 43.942 11.74 43.834 11.848C43.738 11.944 43.69 12.106 43.69 12.334V15.502H48.586V12.352C48.586 12.112 48.538 11.944 48.442 11.848C48.346 11.74 48.178 11.686 47.938 11.686H47.47V10.354H51.682V11.686H51.16C50.92 11.686 50.746 11.74 50.638 11.848C50.542 11.944 50.494 12.106 50.494 12.334V20.002C50.494 20.242 50.542 20.416 50.638 20.524C50.746 20.632 50.92 20.686 51.16 20.686H51.682V22H47.47V20.686H47.938C48.166 20.686 48.328 20.632 48.424 20.524C48.532 20.416 48.586 20.242 48.586 20.002V16.816H43.69V20.002C43.69 20.242 43.738 20.416 43.834 20.524C43.942 20.632 44.11 20.686 44.338 20.686H44.788V22H40.594V20.686ZM55.6175 22.27C54.6575 22.27 53.9255 22.06 53.4215 21.64C52.9295 21.22 52.6835 20.626 52.6835 19.858C52.6835 18.994 52.9535 18.364 53.4935 17.968C54.0455 17.56 54.8375 17.32 55.8695 17.248L58.3895 17.086V15.988C58.3895 15.424 58.2695 15.016 58.0295 14.764C57.7895 14.512 57.3815 14.386 56.8055 14.386C56.4095 14.386 56.0795 14.422 55.8155 14.494C55.5635 14.554 55.3295 14.656 55.1135 14.8V15.448H53.4395V14.026C54.4475 13.402 55.5815 13.09 56.8415 13.09C59.1455 13.09 60.2975 14.11 60.2975 16.15V20.092C60.2975 20.332 60.3395 20.506 60.4235 20.614C60.5195 20.722 60.6695 20.776 60.8735 20.776H61.2695V22H59.1995L58.9655 20.866C58.5815 21.358 58.1315 21.718 57.6155 21.946C57.1115 22.162 56.4455 22.27 55.6175 22.27ZM56.0495 20.974C56.7695 20.974 57.3395 20.818 57.7595 20.506C58.1795 20.194 58.3895 19.72 58.3895 19.084V18.22L56.0135 18.4C55.4255 18.436 55.0175 18.562 54.7895 18.778C54.5615 18.982 54.4475 19.312 54.4475 19.768C54.4475 20.164 54.5735 20.464 54.8255 20.668C55.0775 20.872 55.4855 20.974 56.0495 20.974ZM61.8417 24.448H62.1477C62.4237 24.448 62.6097 24.382 62.7057 24.25C62.8137 24.13 62.8677 23.926 62.8677 23.638V15.34C62.8677 15.1 62.8137 14.926 62.7057 14.818C62.6097 14.698 62.4477 14.638 62.2197 14.638H61.8417V13.36H64.3257L64.5057 14.656C65.2257 13.612 66.2517 13.09 67.5837 13.09C68.7837 13.09 69.7197 13.48 70.3917 14.26C71.0757 15.04 71.4177 16.15 71.4177 17.59C71.4177 19.078 71.0877 20.23 70.4277 21.046C69.7677 21.862 68.8257 22.27 67.6017 22.27C66.9537 22.27 66.4077 22.174 65.9637 21.982C65.5317 21.79 65.1177 21.46 64.7217 20.992V23.638C64.7217 23.926 64.7697 24.13 64.8657 24.25C64.9737 24.382 65.1657 24.448 65.4417 24.448H65.7477V25.744H61.8417V24.448ZM67.1337 20.866C67.9857 20.866 68.5977 20.614 68.9697 20.11C69.3537 19.594 69.5457 18.76 69.5457 17.608C69.5457 16.492 69.3657 15.694 69.0057 15.214C68.6457 14.722 68.0457 14.476 67.2057 14.476C66.4497 14.476 65.8557 14.728 65.4237 15.232C64.9917 15.724 64.7757 16.384 64.7757 17.212V18.22C64.7757 19.072 64.9917 19.726 65.4237 20.182C65.8557 20.638 66.4257 20.866 67.1337 20.866ZM72.4238 24.448H72.7298C73.0058 24.448 73.1918 24.382 73.2878 24.25C73.3958 24.13 73.4498 23.926 73.4498 23.638V15.34C73.4498 15.1 73.3958 14.926 73.2878 14.818C73.1918 14.698 73.0298 14.638 72.8018 14.638H72.4238V13.36H74.9078L75.0878 14.656C75.8078 13.612 76.8338 13.09 78.1658 13.09C79.3658 13.09 80.3018 13.48 80.9738 14.26C81.6578 15.04 81.9998 16.15 81.9998 17.59C81.9998 19.078 81.6698 20.23 81.0098 21.046C80.3498 21.862 79.4078 22.27 78.1838 22.27C77.5358 22.27 76.9898 22.174 76.5458 21.982C76.1138 21.79 75.6998 21.46 75.3038 20.992V23.638C75.3038 23.926 75.3518 24.13 75.4478 24.25C75.5558 24.382 75.7478 24.448 76.0238 24.448H76.3298V25.744H72.4238V24.448ZM77.7158 20.866C78.5678 20.866 79.1798 20.614 79.5518 20.11C79.9358 19.594 80.1278 18.76 80.1278 17.608C80.1278 16.492 79.9478 15.694 79.5878 15.214C79.2278 14.722 78.6278 14.476 77.7878 14.476C77.0318 14.476 76.4378 14.728 76.0058 15.232C75.5738 15.724 75.3578 16.384 75.3578 17.212V18.22C75.3578 19.072 75.5738 19.726 76.0058 20.182C76.4378 20.638 77.0078 20.866 77.7158 20.866ZM87.3812 25.6C85.9172 25.6 84.7532 25.186 83.8892 24.358V23.062H85.5632V23.71C85.9592 24.142 86.5412 24.358 87.3092 24.358C87.9332 24.358 88.4012 24.178 88.7132 23.818C89.0372 23.458 89.1992 22.93 89.1992 22.234V20.956C88.8632 21.292 88.4912 21.538 88.0832 21.694C87.6752 21.838 87.2012 21.91 86.6612 21.91C85.6292 21.91 84.8252 21.646 84.2492 21.118C83.6732 20.578 83.3852 19.822 83.3852 18.85V15.358C83.3852 15.13 83.3312 14.962 83.2232 14.854C83.1152 14.746 82.9472 14.692 82.7192 14.692H82.1972V13.36H85.2932V18.904C85.2932 20.08 85.8752 20.668 87.0392 20.668C87.6632 20.668 88.1612 20.494 88.5332 20.146C88.9052 19.786 89.0912 19.27 89.0912 18.598V15.358C89.0912 15.118 89.0432 14.95 88.9472 14.854C88.8632 14.746 88.7072 14.692 88.4792 14.692H88.0112V13.36H91.0172V21.838C91.0172 22.978 90.6872 23.89 90.0272 24.574C89.3792 25.258 88.4972 25.6 87.3812 25.6ZM92.7165 20.668H93.2025C93.4665 20.668 93.6465 20.62 93.7425 20.524C93.8505 20.416 93.9045 20.248 93.9045 20.02V11.704H92.2485C92.0085 11.704 91.8345 11.758 91.7265 11.866C91.6185 11.962 91.5645 12.124 91.5645 12.352V12.928H90.1425V10.372H99.5565V12.928H98.1345V12.352C98.1345 12.112 98.0805 11.944 97.9725 11.848C97.8765 11.752 97.7025 11.704 97.4505 11.704H95.8125V20.02C95.8125 20.248 95.8605 20.416 95.9565 20.524C96.0645 20.62 96.2505 20.668 96.5145 20.668H97.0005V22H92.7165V20.668ZM99.762 20.668H100.212C100.452 20.668 100.62 20.62 100.716 20.524C100.824 20.416 100.878 20.242 100.878 20.002V15.358C100.878 15.13 100.83 14.962 100.734 14.854C100.638 14.746 100.476 14.692 100.248 14.692H99.87V13.36H102.354L102.606 14.35C102.846 13.978 103.152 13.72 103.524 13.576C103.908 13.432 104.358 13.36 104.874 13.36H105.702V14.692H104.694C104.01 14.692 103.524 14.848 103.236 15.16C102.948 15.46 102.804 15.928 102.804 16.564V20.002C102.804 20.242 102.852 20.416 102.948 20.524C103.044 20.62 103.206 20.668 103.434 20.668H103.884V22H99.762V20.668ZM109.002 22.27C108.042 22.27 107.31 22.06 106.806 21.64C106.314 21.22 106.068 20.626 106.068 19.858C106.068 18.994 106.338 18.364 106.878 17.968C107.43 17.56 108.222 17.32 109.254 17.248L111.774 17.086V15.988C111.774 15.424 111.654 15.016 111.414 14.764C111.174 14.512 110.766 14.386 110.19 14.386C109.794 14.386 109.464 14.422 109.2 14.494C108.948 14.554 108.714 14.656 108.498 14.8V15.448H106.824V14.026C107.832 13.402 108.966 13.09 110.226 13.09C112.53 13.09 113.682 14.11 113.682 16.15V20.092C113.682 20.332 113.724 20.506 113.808 20.614C113.904 20.722 114.054 20.776 114.258 20.776H114.654V22H112.584L112.35 20.866C111.966 21.358 111.516 21.718 111 21.946C110.496 22.162 109.83 22.27 109.002 22.27ZM109.434 20.974C110.154 20.974 110.724 20.818 111.144 20.506C111.564 20.194 111.774 19.72 111.774 19.084V18.22L109.398 18.4C108.81 18.436 108.402 18.562 108.174 18.778C107.946 18.982 107.832 19.312 107.832 19.768C107.832 20.164 107.958 20.464 108.21 20.668C108.462 20.872 108.87 20.974 109.434 20.974ZM115.942 15.088C115.882 14.896 115.792 14.77 115.672 14.71C115.564 14.638 115.36 14.602 115.06 14.602H114.682V13.36H117.184L119.416 20.11L121.648 13.36H124.15V14.602H123.754C123.466 14.602 123.262 14.638 123.142 14.71C123.034 14.77 122.944 14.896 122.872 15.088L120.406 22H118.426L115.942 15.088ZM128.503 22.27C127.135 22.27 126.037 21.892 125.209 21.136C124.393 20.368 123.985 19.252 123.985 17.788C123.985 16.228 124.363 15.058 125.119 14.278C125.887 13.486 126.973 13.09 128.377 13.09C129.733 13.09 130.759 13.474 131.455 14.242C132.151 15.01 132.499 16.048 132.499 17.356V18.184H125.893C125.893 19.156 126.127 19.876 126.595 20.344C127.075 20.8 127.717 21.028 128.521 21.028C128.977 21.028 129.361 20.998 129.673 20.938C129.985 20.866 130.267 20.752 130.519 20.596V19.948H132.193V21.208C131.689 21.568 131.143 21.832 130.555 22C129.979 22.18 129.295 22.27 128.503 22.27ZM130.645 17.014C130.645 15.262 129.883 14.386 128.359 14.386C127.555 14.386 126.943 14.62 126.523 15.088C126.103 15.556 125.893 16.198 125.893 17.014H130.645ZM133.688 20.668H134.21C134.45 20.668 134.618 20.614 134.714 20.506C134.822 20.398 134.876 20.224 134.876 19.984V12.082C134.876 11.854 134.822 11.692 134.714 11.596C134.618 11.488 134.45 11.434 134.21 11.434H133.688V10.084H136.802V20.002C136.802 20.23 136.856 20.398 136.964 20.506C137.072 20.614 137.24 20.668 137.468 20.668H137.99V22H133.688V20.668ZM139.176 20.416H140.85V22H139.176V20.416ZM146.839 22.27C145.975 22.27 145.189 22.096 144.481 21.748C143.785 21.4 143.233 20.884 142.825 20.2C142.417 19.516 142.213 18.7 142.213 17.752C142.213 16.24 142.615 15.088 143.419 14.296C144.235 13.492 145.357 13.09 146.785 13.09C147.565 13.09 148.219 13.174 148.747 13.342C149.275 13.51 149.785 13.78 150.277 14.152V15.88H148.603V14.89C148.327 14.734 148.063 14.626 147.811 14.566C147.559 14.506 147.217 14.476 146.785 14.476C145.981 14.476 145.327 14.746 144.823 15.286C144.331 15.814 144.085 16.636 144.085 17.752C144.085 18.808 144.367 19.594 144.931 20.11C145.507 20.614 146.239 20.866 147.127 20.866C147.679 20.866 148.147 20.818 148.531 20.722C148.927 20.626 149.299 20.464 149.647 20.236L150.313 21.334C149.809 21.682 149.293 21.922 148.765 22.054C148.249 22.198 147.607 22.27 146.839 22.27ZM155.659 22.27C154.195 22.27 153.091 21.868 152.347 21.064C151.603 20.26 151.231 19.138 151.231 17.698C151.231 16.246 151.597 15.118 152.329 14.314C153.073 13.498 154.183 13.09 155.659 13.09C157.135 13.09 158.239 13.498 158.971 14.314C159.715 15.118 160.087 16.246 160.087 17.698C160.087 19.138 159.715 20.26 158.971 21.064C158.227 21.868 157.123 22.27 155.659 22.27ZM155.659 20.92C156.523 20.92 157.165 20.656 157.585 20.128C158.005 19.6 158.215 18.79 158.215 17.698C158.215 16.594 158.005 15.778 157.585 15.25C157.165 14.71 156.523 14.44 155.659 14.44C154.795 14.44 154.153 14.71 153.733 15.25C153.325 15.778 153.121 16.594 153.121 17.698C153.121 18.79 153.325 19.6 153.733 20.128C154.153 20.656 154.795 20.92 155.659 20.92ZM161.268 20.668H161.718C161.958 20.668 162.126 20.62 162.222 20.524C162.33 20.416 162.384 20.242 162.384 20.002V15.358C162.384 15.13 162.33 14.968 162.222 14.872C162.126 14.764 161.958 14.71 161.718 14.71H161.358V13.36H163.608L163.734 14.584C164.058 14.08 164.46 13.708 164.94 13.468C165.432 13.216 166.026 13.09 166.722 13.09C167.25 13.09 167.706 13.21 168.09 13.45C168.474 13.69 168.762 14.032 168.954 14.476C169.254 13.996 169.62 13.648 170.052 13.432C170.496 13.204 171.048 13.09 171.708 13.09C172.692 13.09 173.4 13.336 173.832 13.828C174.276 14.32 174.498 15.058 174.498 16.042V20.002C174.498 20.23 174.552 20.398 174.66 20.506C174.768 20.614 174.936 20.668 175.164 20.668H175.668V22H172.608V16.042C172.608 15.442 172.494 15.016 172.266 14.764C172.038 14.512 171.654 14.386 171.114 14.386C170.562 14.386 170.124 14.542 169.8 14.854C169.488 15.166 169.332 15.622 169.332 16.222V20.002C169.332 20.242 169.374 20.416 169.458 20.524C169.554 20.62 169.716 20.668 169.944 20.668H170.43V22H167.55V16.096C167.55 15.508 167.436 15.076 167.208 14.8C166.98 14.524 166.62 14.386 166.128 14.386C165.528 14.386 165.066 14.554 164.742 14.89C164.418 15.226 164.256 15.718 164.256 16.366V20.002C164.256 20.242 164.298 20.416 164.382 20.524C164.478 20.62 164.64 20.668 164.868 20.668H165.354V22H161.268V20.668Z" fill="#FA793C"/>
<path d="M17.98 27.04C16.4538 28.64 14.7051 30.288 12.7179 32C4.24462 24.72 0 18.432 0 13.12C0 5.152 6.04103 0 12.7179 0C19.0769 0 24.8636 4.672 25.3882 12H31L23.8462 19.2L16.6923 12H22.2087C21.7 6.784 17.6938 3.2 12.7179 3.2C7.39231 3.2 3.17949 7.312 3.17949 13.12C3.17949 16.864 6.27949 21.824 12.7179 27.744C13.7354 26.8 14.6733 25.888 15.5318 25.008C15.2521 24.4524 15.1051 23.8388 15.1026 23.216C15.1026 22.1551 15.5213 21.1377 16.2666 20.3876C17.012 19.6374 18.0229 19.216 19.0769 19.216C20.131 19.216 21.1419 19.6374 21.8872 20.3876C22.6326 21.1377 23.0513 22.1551 23.0513 23.216C23.0507 23.8347 22.9071 24.4448 22.6318 24.998C22.3565 25.5512 21.957 26.0324 21.465 26.4034C20.973 26.7743 20.402 27.025 19.7971 27.1355C19.1923 27.246 18.5702 27.2133 17.98 27.04Z" fill="#FA793C"/>
</svg>
